<svg width="16" height="17" viewBox="0 0 16 17" fill="none" xmlns="http://www.w3.org/2000/svg">
<path d="M2.21533 1.9375L2.21533 1.94688M2.21533 8.5L2.21533 8.50938M2.21533 15.0625L2.21533 15.0719M2.21533 2.875C1.69756 2.875 1.27783 2.45527 1.27783 1.9375C1.27783 1.41973 1.69757 1 2.21533 1C2.7331 1 3.15283 1.41973 3.15283 1.9375C3.15283 2.45527 2.7331 2.875 2.21533 2.875ZM2.21533 9.4375C1.69756 9.4375 1.27783 9.01777 1.27783 8.5C1.27783 7.98223 1.69756 7.5625 2.21533 7.5625C2.7331 7.5625 3.15283 7.98223 3.15283 8.5C3.15283 9.01777 2.7331 9.4375 2.21533 9.4375ZM2.21533 16C1.69756 16 1.27783 15.5803 1.27783 15.0625C1.27783 14.5447 1.69756 14.125 2.21533 14.125C2.7331 14.125 3.15283 14.5447 3.15283 15.0625C3.15283 15.5803 2.7331 16 2.21533 16Z" stroke="#4F46E5" stroke-width="1.5" stroke-linecap="round" stroke-linejoin="round"/>
<path d="M8 1.9375L8 1.94688M8 8.5L8 8.50938M8 15.0625L8 15.0719M8 2.875C7.48223 2.875 7.0625 2.45527 7.0625 1.9375C7.0625 1.41973 7.48223 1 8 1C8.51777 1 8.9375 1.41973 8.9375 1.9375C8.9375 2.45527 8.51777 2.875 8 2.875ZM8 9.4375C7.48223 9.4375 7.0625 9.01777 7.0625 8.5C7.0625 7.98223 7.48223 7.5625 8 7.5625C8.51777 7.5625 8.9375 7.98223 8.9375 8.5C8.9375 9.01777 8.51777 9.4375 8 9.4375ZM8 16C7.48223 16 7.0625 15.5803 7.0625 15.0625C7.0625 14.5447 7.48223 14.125 8 14.125C8.51777 14.125 8.9375 14.5447 8.9375 15.0625C8.9375 15.5803 8.51777 16 8 16Z" stroke="#4F46E5" stroke-width="1.5" stroke-linecap="round" stroke-linejoin="round"/>
<path d="M13.7842 1.9375L13.7842 1.94688M13.7842 8.5L13.7842 8.50938M13.7842 15.0625L13.7842 15.0719M13.7842 2.875C13.2664 2.875 12.8467 2.45527 12.8467 1.9375C12.8467 1.41973 13.2664 1 13.7842 1C14.3019 1 14.7217 1.41973 14.7217 1.9375C14.7217 2.45527 14.3019 2.875 13.7842 2.875ZM13.7842 9.4375C13.2664 9.4375 12.8467 9.01777 12.8467 8.5C12.8467 7.98223 13.2664 7.5625 13.7842 7.5625C14.3019 7.5625 14.7217 7.98223 14.7217 8.5C14.7217 9.01777 14.3019 9.4375 13.7842 9.4375ZM13.7842 16C13.2664 16 12.8467 15.5803 12.8467 15.0625C12.8467 14.5447 13.2664 14.125 13.7842 14.125C14.3019 14.125 14.7217 14.5447 14.7217 15.0625C14.7217 15.5803 14.3019 16 13.7842 16Z" stroke="#4F46E5" stroke-width="1.5" stroke-linecap="round" stroke-linejoin="round"/>
</svg>
