<svg width="16" height="17" viewBox="0 0 16 17" fill="none" xmlns="http://www.w3.org/2000/svg">
<path d="M10.5002 12.6667H14.6668L13.4961 11.4959C13.1785 11.1784 13.0002 10.7477 13.0002 10.2987V7.66667C13.0002 5.48964 11.6088 3.63757 9.66683 2.95118V2.66667C9.66683 1.74619 8.92064 1 8.00016 1C7.07969 1 6.3335 1.74619 6.3335 2.66667V2.95118C4.39151 3.63757 3.00016 5.48964 3.00016 7.66667V10.2987C3.00016 10.7477 2.82179 11.1784 2.50427 11.4959L1.3335 12.6667H5.50016M10.5002 12.6667V13.5C10.5002 14.8807 9.38087 16 8.00016 16C6.61945 16 5.50016 14.8807 5.50016 13.5V12.6667M10.5002 12.6667H5.50016" stroke="#4F46E5" stroke-width="1.5" stroke-linecap="round" stroke-linejoin="round"/>
</svg>
