<svg width="5" height="19" viewBox="0 0 5 19" fill="none" xmlns="http://www.w3.org/2000/svg">
<path d="M2.16797 2.5L2.16797 2.51M2.16797 9.5L2.16797 9.51M2.16797 16.5L2.16797 16.51M2.16797 3.5C1.61568 3.5 1.16797 3.05228 1.16797 2.5C1.16797 1.94772 1.61568 1.5 2.16797 1.5C2.72025 1.5 3.16797 1.94772 3.16797 2.5C3.16797 3.05228 2.72025 3.5 2.16797 3.5ZM2.16797 10.5C1.61568 10.5 1.16797 10.0523 1.16797 9.5C1.16797 8.94772 1.61568 8.5 2.16797 8.5C2.72025 8.5 3.16797 8.94772 3.16797 9.5C3.16797 10.0523 2.72025 10.5 2.16797 10.5ZM2.16797 17.5C1.61568 17.5 1.16797 17.0523 1.16797 16.5C1.16797 15.9477 1.61568 15.5 2.16797 15.5C2.72025 15.5 3.16797 15.9477 3.16797 16.5C3.16797 17.0523 2.72025 17.5 2.16797 17.5Z" stroke="#111827" stroke-width="2" stroke-linecap="round" stroke-linejoin="round"/>
</svg>
