<svg width="17" height="17" viewBox="0 0 17 17" fill="none" xmlns="http://www.w3.org/2000/svg">
<path d="M15.3898 1.61019L15.9201 1.07986L15.9201 1.07986L15.3898 1.61019ZM3.91667 16.0296V16.7796C4.11558 16.7796 4.30634 16.7005 4.447 16.5599L3.91667 16.0296ZM1 16.0296H0.25C0.25 16.4438 0.585786 16.7796 1 16.7796L1 16.0296ZM1 13.0537L0.46967 12.5233C0.329018 12.664 0.25 12.8548 0.25 13.0537H1ZM12.4435 1.61019L12.9738 2.14052C13.4945 1.61983 14.3387 1.61983 14.8594 2.14052L15.3898 1.61019L15.9201 1.07986C14.8136 -0.0266214 13.0196 -0.0266214 11.9132 1.07986L12.4435 1.61019ZM15.3898 1.61019L14.8594 2.14052C15.3801 2.66122 15.3801 3.50544 14.8594 4.02614L15.3898 4.55647L15.9201 5.0868C17.0266 3.98032 17.0266 2.18635 15.9201 1.07986L15.3898 1.61019ZM15.3898 4.55647L14.8594 4.02614L3.38634 15.4992L3.91667 16.0296L4.447 16.5599L15.9201 5.0868L15.3898 4.55647ZM3.91667 16.0296V15.2796H1V16.0296V16.7796H3.91667V16.0296ZM12.4435 1.61019L11.9132 1.07986L0.46967 12.5233L1 13.0537L1.53033 13.584L12.9738 2.14052L12.4435 1.61019ZM1 13.0537H0.25V16.0296H1H1.75V13.0537H1ZM11.1935 2.86019L10.6632 3.39052L13.6094 6.3368L14.1398 5.80647L14.6701 5.27614L11.7238 2.32986L11.1935 2.86019Z" fill="#111827"/>
</svg>
