<svg width="92" height="25" viewBox="0 0 92 25" fill="none" xmlns="http://www.w3.org/2000/svg">
<path d="M91.3241 4.71168L89.9538 4.56207C89.1656 4.47599 88.4307 4.13159 87.8697 3.5853C87.3087 3.03901 86.9548 2.32329 86.8661 1.55539L86.7126 0.219067C86.7056 0.158647 86.6759 0.102838 86.6293 0.0623583C86.5827 0.0218786 86.5225 -0.000412028 86.4601 -0.00036614H85.8862C85.8239 -0.000375988 85.7638 0.0219894 85.7175 0.0624948C85.6711 0.103 85.6418 0.158765 85.6351 0.219067L85.4801 1.55539C85.3914 2.32307 85.0378 3.03863 84.4771 3.58489C83.9164 4.13115 83.1818 4.47569 82.3938 4.56207L81.0221 4.71168C80.9601 4.71855 80.9029 4.74738 80.8613 4.79276C80.8198 4.83814 80.7968 4.89685 80.7969 4.95766V5.51679C80.7968 5.5776 80.8198 5.63631 80.8613 5.68169C80.9029 5.72707 80.9601 5.75597 81.0221 5.76284L82.3938 5.91238C83.1818 5.99876 83.9164 6.3433 84.4771 6.88956C85.0378 7.43582 85.3914 8.15138 85.4801 8.91906L85.6351 10.2554C85.6418 10.3157 85.6711 10.3715 85.7175 10.412C85.7638 10.4525 85.8239 10.4749 85.8862 10.4749H86.4601C86.5225 10.4749 86.5827 10.4526 86.6293 10.4121C86.6759 10.3716 86.7056 10.3158 86.7126 10.2554L86.8661 8.91906C86.9548 8.15117 87.3087 7.43544 87.8697 6.88915C88.4307 6.34286 89.1656 5.99846 89.9538 5.91238L91.3241 5.76284C91.3861 5.75597 91.4433 5.72707 91.4849 5.68169C91.5264 5.63631 91.5494 5.5776 91.5493 5.51679V4.95766C91.5494 4.89685 91.5264 4.83814 91.4849 4.79276C91.4433 4.74738 91.3861 4.71855 91.3241 4.71168V4.71168Z" fill="#5C27FF"/>
<path d="M91.324 4.71168L89.9538 4.56207C89.1655 4.47599 88.4307 4.13158 87.8697 3.5853C87.3087 3.03901 86.9548 2.32329 86.8661 1.55539L86.7126 0.219067C86.7055 0.158647 86.6759 0.102838 86.6293 0.0623583C86.5827 0.0218786 86.5225 -0.000412028 86.4601 -0.00036614H85.8862C85.8239 -0.000375988 85.7638 0.0219894 85.7175 0.0624948C85.6711 0.103 85.6418 0.158765 85.6351 0.219067L85.4801 1.55539C85.3914 2.32307 85.0378 3.03863 84.4771 3.58489C83.9163 4.13115 83.1818 4.47569 82.3938 4.56207L81.0221 4.71168C80.9601 4.71855 80.9029 4.74738 80.8613 4.79276C80.8198 4.83814 80.7968 4.89685 80.7969 4.95766V5.51679C80.7968 5.5776 80.8198 5.63631 80.8613 5.68169C80.9029 5.72706 80.9601 5.75597 81.0221 5.76284L82.3938 5.91238C83.1818 5.99876 83.9163 6.3433 84.4771 6.88956C85.0378 7.43582 85.3914 8.15137 85.4801 8.91906L85.6351 10.2554C85.6418 10.3157 85.6711 10.3714 85.7175 10.412C85.7638 10.4525 85.8239 10.4749 85.8862 10.4749H86.4601C86.5225 10.4749 86.5827 10.4526 86.6293 10.4121C86.6759 10.3716 86.7055 10.3158 86.7126 10.2554L86.8661 8.91906C86.9548 8.15116 87.3087 7.43543 87.8697 6.88915C88.4307 6.34286 89.1655 5.99846 89.9538 5.91238L91.324 5.76284C91.3861 5.75597 91.4433 5.72706 91.4849 5.68169C91.5264 5.63631 91.5494 5.5776 91.5493 5.51679V4.95766C91.5494 4.89685 91.5264 4.83814 91.4849 4.79276C91.4433 4.74738 91.3861 4.71855 91.324 4.71168V4.71168Z" fill="#5C27FF"/>
<path d="M13.2634 22.1623V24.3527C13.2639 24.4562 13.2267 24.5567 13.1584 24.636C13.0901 24.7153 12.9951 24.7685 12.8904 24.786C12.6924 24.8158 12.4924 24.8303 12.2921 24.8294C9.64914 24.8294 7.75084 23.9711 5.96594 20.0516L5.49101 19.1053H3.36752V24.3024C3.36714 24.4187 3.31959 24.5301 3.23518 24.6123C3.15077 24.6946 3.03635 24.7409 2.91697 24.7413H0.450549C0.391385 24.7413 0.332795 24.7299 0.278134 24.7079C0.223473 24.6858 0.173827 24.6535 0.131991 24.6127C0.0901555 24.572 0.0569701 24.5236 0.0343289 24.4704C0.0116877 24.4171 0 24.36 0 24.3024V9.87966C0 9.82202 0.0116877 9.76494 0.0343289 9.71169C0.0569701 9.65844 0.0901555 9.61007 0.131991 9.56932C0.173827 9.52856 0.223473 9.49623 0.278134 9.47417C0.332795 9.45211 0.391385 9.4408 0.450549 9.4408H7.05066C10.3938 9.4408 12.7225 11.2467 12.7225 14.3065C12.7225 16.6619 11.3207 18.1813 9.01638 18.6398C10.4167 21.2383 11.5244 21.722 12.6995 21.722H12.8071C12.867 21.7209 12.9265 21.7315 12.9821 21.7531C13.0377 21.7748 13.0883 21.8072 13.1308 21.8482C13.1733 21.8893 13.207 21.9382 13.2298 21.9922C13.2526 22.0461 13.264 22.104 13.2634 22.1623V22.1623ZM3.36325 16.2915H6.68481C8.35636 16.2915 9.19285 15.566 9.19285 14.2884C9.19285 12.9898 8.35632 12.2853 6.63885 12.2853H3.36325V16.2915Z" fill="#110B39"/>
<path d="M14.8745 20.6621V14.3202C14.8749 14.204 14.9225 14.0927 15.0069 14.0107C15.0914 13.9287 15.2058 13.8827 15.325 13.8827H17.701C17.8203 13.8827 17.9347 13.9287 18.0191 14.0107C18.1036 14.0927 18.1512 14.204 18.1516 14.3202V20.2218C18.1516 21.6532 18.7843 22.4024 19.981 22.4024C21.2249 22.4024 22.1963 21.5874 22.1963 20.0456V14.3146C22.1963 14.1985 22.2436 14.0873 22.3279 14.0053C22.4121 13.9232 22.5263 13.8771 22.6454 13.8771H25.0229C25.142 13.8771 25.2562 13.9232 25.3404 14.0053C25.4246 14.0873 25.472 14.1985 25.472 14.3146V24.2908C25.472 24.407 25.4247 24.5184 25.3405 24.6007C25.2564 24.683 25.1421 24.7294 25.0229 24.7298H22.8276C22.7684 24.7298 22.7098 24.7184 22.6552 24.6963C22.6005 24.6743 22.5509 24.6419 22.509 24.6012C22.4672 24.5604 22.434 24.512 22.4114 24.4588C22.3887 24.4055 22.3771 24.3485 22.3771 24.2908V23.1879C21.6597 24.2894 20.5018 24.9939 19.0555 24.9939C16.3667 24.9995 14.8745 23.392 14.8745 20.6621Z" fill="#110B39"/>
<path d="M28.1439 13.8829H30.3162C30.3753 13.8827 30.4339 13.8939 30.4885 13.9158C30.5432 13.9377 30.5928 13.9699 30.6347 14.0105C30.6765 14.0511 30.7097 14.0994 30.7324 14.1526C30.755 14.2058 30.7667 14.2628 30.7667 14.3204V15.4233C31.123 14.8625 31.6226 14.4014 32.2166 14.085C32.8107 13.7687 33.4788 13.608 34.1557 13.6187C36.9134 13.6187 38.4272 15.2248 38.4272 17.9324V24.2966C38.4272 24.413 38.3797 24.5247 38.2952 24.607C38.2107 24.6893 38.0961 24.7356 37.9766 24.7356H35.6006C35.4812 24.7352 35.3668 24.6888 35.2824 24.6066C35.198 24.5243 35.1504 24.4129 35.1501 24.2966V18.4398C35.1501 16.986 34.4958 16.2158 33.2303 16.2158C31.9648 16.2158 30.9475 17.0545 30.9475 18.6368V24.2966C30.9475 24.413 30.9 24.5247 30.8155 24.607C30.731 24.6893 30.6165 24.7356 30.497 24.7356H28.1439C28.0245 24.7352 27.9101 24.6888 27.8257 24.6066C27.7413 24.5243 27.6937 24.4129 27.6934 24.2966V14.3204C27.6937 14.2042 27.7414 14.0929 27.8258 14.0109C27.9103 13.9289 28.0246 13.8829 28.1439 13.8829V13.8829Z" fill="#110B39"/>
<path d="M39.691 13.8829H42.0958C42.1952 13.8841 42.2914 13.9174 42.3693 13.9776C42.4472 14.0378 42.5024 14.1215 42.5262 14.2155L44.2724 21.1026L46.0616 14.2127C46.086 14.1192 46.1414 14.0362 46.2192 13.9765C46.2971 13.9169 46.393 13.8839 46.492 13.8829H49.0747C49.1737 13.8834 49.2697 13.9159 49.3476 13.9754C49.4255 14.0348 49.4809 14.1179 49.5051 14.2114L51.3388 21.1026L53.0405 14.2183C53.0641 14.1226 53.1201 14.0375 53.1995 13.9766C53.2789 13.9157 53.3771 13.8827 53.4781 13.8829H55.8828C55.9523 13.8833 56.0207 13.8994 56.0828 13.9298C56.1448 13.9603 56.1988 14.0043 56.2404 14.0584C56.2821 14.1126 56.3103 14.1753 56.323 14.2419C56.3356 14.3084 56.3323 14.3769 56.3133 14.442L53.1768 24.4183C53.1485 24.508 53.0915 24.5866 53.014 24.6425C52.9366 24.6983 52.8427 24.7285 52.7463 24.7285H50.0733C49.9748 24.7277 49.8794 24.6955 49.8016 24.6366C49.7238 24.5778 49.668 24.4956 49.6429 24.4028L47.7776 17.6891L45.9454 24.4084C45.92 24.5011 45.8642 24.5831 45.7864 24.6419C45.7087 24.7007 45.6133 24.7331 45.5149 24.7341H42.8275C42.7311 24.7343 42.6372 24.7042 42.5597 24.6483C42.4821 24.5925 42.4251 24.5138 42.3971 24.4239L39.2606 14.4476C39.2402 14.3822 39.2358 14.313 39.2478 14.2456C39.2598 14.1782 39.2879 14.1145 39.3297 14.0596C39.3716 14.0047 39.4261 13.96 39.4888 13.9294C39.5516 13.8987 39.6208 13.8828 39.691 13.8829Z" fill="#110B39"/>
<path d="M67.5463 21.8226C67.6019 21.8495 67.6511 21.8873 67.691 21.9337C67.7309 21.98 67.7605 22.0339 67.778 22.0919C67.7955 22.1499 67.8006 22.2108 67.7928 22.2708C67.785 22.3308 67.7646 22.3886 67.7328 22.4405C66.8203 23.9096 65.2004 24.9999 62.6335 24.9999C59.1311 24.9999 56.5327 22.8417 56.5327 19.3205C56.5327 15.9518 59.0637 13.6188 62.4527 13.6188C65.8417 13.6188 67.905 15.8414 67.905 19.1654C67.905 19.2982 67.905 19.445 67.905 19.5848C67.9035 19.7001 67.8553 19.8101 67.7709 19.891C67.6866 19.9719 67.5728 20.017 67.4544 20.0167H59.9303C60.0896 21.5808 61.1054 22.5327 62.688 22.5327C63.7971 22.5327 64.5992 22.0239 65.1932 21.1168C65.2524 21.0243 65.3449 20.9565 65.4526 20.9268C65.5603 20.8971 65.6755 20.9075 65.7757 20.956L67.5463 21.8226ZM59.9418 18.1967H64.5518C64.4385 16.7877 63.7153 15.9742 62.3379 15.9742C61.0523 15.9742 60.1484 16.8101 59.9447 18.1967H59.9418Z" fill="#110B39"/>
<path d="M72.2612 24.7102C71.2827 24.7102 70.5596 24.4679 70.0918 23.9833C69.6241 23.4987 69.3906 22.8464 69.3916 22.0263V9.92544C69.392 9.79787 69.4434 9.67549 69.5351 9.58438C69.5816 9.53724 69.6379 9.50038 69.7003 9.47626C69.7627 9.45215 69.8296 9.44135 69.8967 9.44459H72.155C72.2221 9.44135 72.2891 9.45215 72.3514 9.47626C72.4138 9.50038 72.4701 9.53724 72.5166 9.58438C72.6083 9.67549 72.6597 9.79787 72.6601 9.92544V21.3876C72.652 21.5691 72.7169 21.7466 72.8409 21.8824C72.9052 21.9463 72.9827 21.996 73.0683 22.0283C73.154 22.0606 73.2457 22.0747 73.3373 22.0697H74.039C74.3546 22.0697 74.5125 22.2239 74.5125 22.5324V24.1189C74.5125 24.515 74.3015 24.713 73.8797 24.713L72.2612 24.7102Z" fill="#110B39"/>
<path d="M78.5655 24.7102C77.586 24.7102 76.8628 24.4679 76.396 23.9833C75.9292 23.4987 75.6959 22.8464 75.6959 22.0263V9.92544C75.6938 9.79902 75.7421 9.67674 75.8307 9.58438C75.8772 9.53724 75.9336 9.50038 75.9959 9.47626C76.0583 9.45215 76.1253 9.44135 76.1923 9.44459H78.4521C78.5192 9.44135 78.5861 9.45215 78.6485 9.47626C78.7109 9.50038 78.7672 9.53724 78.8137 9.58438C78.9054 9.67549 78.9568 9.79787 78.9572 9.92544V21.3876C78.9524 21.4776 78.9659 21.5676 78.9969 21.6525C79.028 21.7374 79.0759 21.8156 79.138 21.8824C79.2022 21.9463 79.2798 21.996 79.3654 22.0283C79.451 22.0606 79.5427 22.0747 79.6344 22.0697H80.3346C80.6522 22.0697 80.8105 22.2239 80.8095 22.5324V24.1189C80.8095 24.515 80.5986 24.713 80.1768 24.713L78.5655 24.7102Z" fill="#110B39"/>
</svg>
