<svg width="8" height="15" viewBox="0 0 8 15" fill="none" xmlns="http://www.w3.org/2000/svg">
<path fill-rule="evenodd" clip-rule="evenodd" d="M4 0.5C4.26522 0.5 4.51957 0.605357 4.70711 0.792893L7.70711 3.79289C8.09763 4.18342 8.09763 4.81658 7.70711 5.20711C7.31658 5.59763 6.68342 5.59763 6.29289 5.20711L4 2.91421L1.70711 5.20711C1.31658 5.59763 0.683417 5.59763 0.292893 5.20711C-0.0976311 4.81658 -0.097631 4.18342 0.292893 3.79289L3.29289 0.792893C3.48043 0.605357 3.73478 0.5 4 0.5ZM0.292893 9.79289C0.683417 9.40237 1.31658 9.40237 1.70711 9.79289L4 12.0858L6.29289 9.79289C6.68342 9.40237 7.31658 9.40237 7.70711 9.79289C8.09763 10.1834 8.09763 10.8166 7.70711 11.2071L4.70711 14.2071C4.31658 14.5976 3.68342 14.5976 3.29289 14.2071L0.292893 11.2071C-0.0976311 10.8166 -0.0976311 10.1834 0.292893 9.79289Z" fill="#111827"/>
</svg>
